<svg role="img" xmlns="http://www.w3.org/2000/svg" aria-label="logo" viewBox="0 0 193 25" width="193" height="25">
    <title>globalxetfs-text-logo</title>
    <g fill="#f05825">
        <path d="M91 21.22c2.15 0 3.17-.48 3.92-1.24a4 4 0 0 0 1.13-2.8 4 4 0 0 0-1.13-2.77c-.75-.75-1.77-1.23-3.92-1.23h-5.2v8zM89.92 9.94c1.92 0 2.74-.38 3.28-1a3 3 0 0 0 .8-2.08 3 3 0 0 0-.82-2.08c-.54-.62-1.36-1-3.28-1h-4.1v6.16zm-7.51 14.52V.54h8.13a6.84 6.84 0 0 1 4.92 1.67 6.18 6.18 0 0 1 2 4.55 6 6 0 0 1-1.9 4.24 7.05 7.05 0 0 1 1.3 11.82 7.62 7.62 0 0 1-5.23 1.61zm30.26-9.4h7.38l-3.69-8.88zm8.72 3.25H111.3l-2.49 6.15h-3.55L115.17.54h2.39l9.91 23.92h-3.56zm71.24 6.28l-8.46-8.46 2.41-2.42 6 6.05zm-21.76 0v-4.83L190.22.41l2.41 2.42zm8.46-18.13l-2.41 2.42-6-6.05 2.36-2.42zM136.48.54h3.42v23.92h-3.42zM143.31 21h8.56v3.42h-8.56zm-121.14-.64a12.17 12.17 0 0 1-9.29 4.44A12 12 0 0 1 .48 12.5 12 12 0 0 1 12.57.2a11.91 11.91 0 0 1 8.75 3.69L19 6.14a9.12 9.12 0 0 0-6.46-2.7 8.72 8.72 0 0 0-8.65 9.06 8.71 8.71 0 0 0 9 9.06 8.32 8.32 0 0 0 5.88-2.23v-6.15h-6.85V9.94h10.25zM30.84.54h3.42v23.92h-3.42zM37.67 21h8.56v3.42h-8.56zm0 0h8.56v3.42h-8.56zM62.59.2a12.3 12.3 0 1 0 12.3 12.3A12.31 12.31 0 0 0 62.59.2m0 3.24a8.93 8.93 0 0 1 8.88 9.06 8.89 8.89 0 1 1-17.77 0 8.93 8.93 0 0 1 8.89-9.06"/>
    </g>
</svg>
