<svg fill="#6C1F4C" xmlns="http://www.w3.org/2000/svg" viewBox="0 0 694.07 177.28" class=""><path fill="#6C1F4C" class="block lg:hidden" d="M0,177.28C0,107.53,25.22,34.19,74.48,29.96c69.41-5.97,77.5,111.41,3.57,115.1C24.48,147.73.01,68.81.01,34.17h37.82s-28.01,85.67,30,85.67c18.66,0,29.78-15.45,29.78-34.2s-14.3-30.54-30.74-30.54c-61.97,0-29.04,122.18-29.04,122.18H0Z"></path><g class="hidden lg:block" fill="#6C1F4C"><path d="M270.11,0h31.17v141.62h-31.17V0Z"></path><path d="M377.42,144.56c-12.13,0-22.74-2.42-31.84-7.24-9.1-4.83-16.17-11.56-21.23-20.21-5.05-8.64-7.58-18.62-7.58-29.93s2.53-21.45,7.58-30.03,12.16-15.28,21.31-20.11,19.74-7.24,31.76-7.24,22.77,2.42,31.92,7.24c9.15,4.83,16.26,11.53,21.31,20.11s7.58,18.59,7.58,30.03-2.53,21.45-7.58,30.03-12.16,15.29-21.31,20.11c-9.16,4.83-19.8,7.24-31.92,7.24h0ZM377.42,117.87c6.18,0,11.43-1.24,15.75-3.72s7.64-6.01,9.94-10.58c2.3-4.58,3.45-10.04,3.45-16.4s-1.15-11.82-3.45-16.4-5.62-8.1-9.94-10.58-9.58-3.72-15.75-3.72-11.12,1.24-15.5,3.72-7.75,6.01-10.11,10.58-3.54,10.04-3.54,16.4,1.18,11.82,3.54,16.4c2.36,4.58,5.73,8.1,10.11,10.58s9.54,3.72,15.5,3.72h0Z"></path><path d="M448.88,34.06h31.15l6.05,41.14v66.41h-31.33v-71.75l-5.86-35.8h-.01ZM521.96,29.79c9.21,0,17.04,2.07,23.5,6.2,6.46,4.14,11.4,10.02,14.82,17.65,3.42,7.63,5.14,16.73,5.14,27.29v60.69h-31.33v-55.34c0-9.03-1.97-15.87-5.9-20.51-3.93-4.64-9.55-6.97-16.85-6.97-5.17,0-9.63,1.24-13.39,3.72-3.76,2.48-6.68,5.98-8.76,10.5s-3.12,9.89-3.12,16.12l-9.94-5.92c1.23-11.57,4.01-21.31,8.34-29.2,4.32-7.89,9.71-13.9,16.17-18.03,6.46-4.13,13.56-6.2,21.31-6.2,0,0,.01,0,.01,0Z"></path><path d="M0,177.28C0,107.53,25.22,34.19,74.48,29.96c69.41-5.97,77.5,111.41,3.57,115.1C24.48,147.73.01,68.81.01,34.17h37.82s-28.01,85.67,30,85.67c18.66,0,29.78-15.45,29.78-34.2s-14.3-30.54-30.74-30.54c-61.97,0-29.04,122.18-29.04,122.18H0Z"></path><path d="M147.35,69.3v-25.33c25.65-19.79,71.82-19.09,89.7,3.45,27.2,34.29,4.44,98.05-56.33,98.05-23.03,0-38.86-13.44-38.86-38.08,0-16.74,15.09-31.96,38.86-32.67,61.75-1.86,74.94,67.09,74.94,67.09h-32.92c4.26-38.15-8.65-50.41-29.77-51.09-11.6-.37-21.85,5.82-21.85,16.7,0,12.68,10.11,18.5,21.85,18.5,15.22,0,24.51-7.36,26.65-18.66,2.97-15.73-1.01-36.71-11.69-45.12-14.27-11.24-44.28-10.02-60.57,7.16h-.01Z"></path><path d="M585.76,69.3v-25.33c25.65-19.79,71.82-19.09,89.7,3.45,27.2,34.29,4.44,98.05-56.33,98.05-23.03,0-38.86-13.44-38.86-38.08,0-16.74,15.09-31.96,38.86-32.67,61.75-1.86,74.94,67.09,74.94,67.09h-32.92c4.26-38.15-8.65-50.41-29.77-51.09-11.6-.37-21.85,5.82-21.85,16.7,0,12.68,10.11,18.5,21.85,18.5,15.22,0,24.51-7.36,26.65-18.66,2.97-15.73-1.01-36.71-11.69-45.12-14.27-11.24-44.28-10.02-60.57,7.16,0,0-.01,0-.01,0Z"></path></g></svg>